<?xml version="1.0" encoding="utf-8"?>
<!-- Generator: Adobe Illustrator 27.2.0, SVG Export Plug-In . SVG Version: 6.00 Build 0)  -->
<svg version="1.1" id="Layer_1" xmlns:xodm="http://www.corel.com/coreldraw/odm/2003"
	 xmlns="http://www.w3.org/2000/svg" xmlns:xlink="http://www.w3.org/1999/xlink" x="0px" y="0px" viewBox="0 0 100 87"
	 style="enable-background:new 0 0 100 87;" xml:space="preserve">
<style type="text/css">
	.st0{fill:#EE5586;}
	.st1{fill:#5E686C;}
</style>
<path id="svg-ico" class="st0" d="M97.7,49.4c-7.2,0-12.9-11.9-18.4-23.5c-1.9-4-3.7-7.8-5.4-10.7c-0.4-0.7-0.2-1.5,0.5-1.9
	c0.7-0.4,1.5-0.2,1.9,0.5c1.8,3,3.6,6.8,5.6,10.9c4.9,10.2,11,22.9,16.6,21.9c0.7-0.1,1.5,0.4,1.6,1.1c0.1,0.8-0.4,1.5-1.1,1.6
	C98.5,49.4,98.1,49.4,97.7,49.4z"/>
<path id="svg-ico" class="st0" d="M38.7,64.6c-0.3,0-0.6-0.1-0.9-0.3
	c-0.6-0.5-0.7-1.4-0.2-1.9c4.7-5.6,9-16.4,13.2-26.8c3.2-8,6.3-15.6,9.4-20.7c0.4-0.7,1.3-0.9,1.9-0.5c0.7,0.4,0.9,1.2,0.5,1.9
	c-3,4.8-6,12.3-9.2,20.2c-4.3,10.6-8.7,21.6-13.7,27.6C39.5,64.5,39.1,64.6,38.7,64.6L38.7,64.6z"/>
<path class="st1" d="M1.4,68.9c-0.2,0-0.5-0.1-0.7-0.2c-0.7-0.4-0.9-1.2-0.5-1.9c3.6-6.5,6.9-9.9,10.3-10.5c3.6-0.7,6.6,1.8,9.8,4.4
	c1.1,0.9,2.3,1.9,3.5,2.7c0.6,0.4,0.8,1.3,0.4,1.9c-0.4,0.6-1.3,0.8-1.9,0.4c-1.3-0.9-2.5-1.9-3.7-2.9c-2.8-2.3-5.2-4.2-7.5-3.8
	c-2.5,0.5-5.2,3.4-8.4,9.1C2.4,68.6,1.9,68.9,1.4,68.9L1.4,68.9z"/>
<path class="st1" d="M98.6,85.9h-97c-0.8,0-1.4-0.6-1.4-1.4c0-0.8,0.6-1.4,1.4-1.4h97c0.8,0,1.4,0.6,1.4,1.4
	C100,85.3,99.4,85.9,98.6,85.9z"/>
<path id="svg-ico" class="st0" d="M68.2,19.4c-5.4,0-9.7-4.4-9.7-9.7
	S62.9,0,68.2,0c5.4,0,9.7,4.4,9.7,9.7S73.6,19.4,68.2,19.4z M68.2,2.8c-3.8,0-6.9,3.1-6.9,6.9s3.1,6.9,6.9,6.9
	c3.8,0,6.9-3.1,6.9-6.9S72.1,2.8,68.2,2.8z"/>
<path class="st1" d="M31.5,77.1c-5.4,0-9.7-4.4-9.7-9.7c0-5.4,4.4-9.7,9.7-9.7s9.7,4.4,9.7,9.7C41.2,72.7,36.9,77.1,31.5,77.1z
	 M31.5,60.4c-3.8,0-6.9,3.1-6.9,6.9s3.1,6.9,6.9,6.9s6.9-3.1,6.9-6.9S35.3,60.4,31.5,60.4z"/>
</svg>
