<?xml version="1.0" encoding="utf-8"?>
<!-- Generator: Adobe Illustrator 26.0.3, SVG Export Plug-In . SVG Version: 6.00 Build 0)  -->
<svg version="1.1" id="Layer_1" xmlns="http://www.w3.org/2000/svg" xmlns:xlink="http://www.w3.org/1999/xlink" x="0px" y="0px"
	 viewBox="0 0 100 100" style="enable-background:new 0 0 100 100;" xml:space="preserve">
<style type="text/css">
	.auto-setup1{fill:none;stroke:#494949;stroke-width:3.5;stroke-linecap:round;stroke-linejoin:round;stroke-miterlimit:10;}
	.auto-setup2{fill:#494949;}
	.auto-setup3{fill:#FFFFFF;stroke:#FBAE2F;stroke-width:3;stroke-linecap:round;stroke-linejoin:round;stroke-miterlimit:10;}
</style>
<g>
	<path class="auto-setup1" d="M2.3,6.6v21.7h95.3V6.6c0-2.4-1.9-4.3-4.3-4.3H6.6C4.2,2.3,2.3,4.2,2.3,6.6z"/>
	<path class="auto-setup1" d="M2.3,28.3v65c0,2.4,1.9,4.3,4.3,4.3h86.7c2.4,0,4.3-1.9,4.3-4.3v-65H2.3z"/>
</g>
<g>
	<circle class="auto-setup2" cx="15.3" cy="15.3" r="4.3"/>
	<circle class="auto-setup2" cx="28.3" cy="15.3" r="4.3"/>
	<circle class="auto-setup2" cx="41.3" cy="15.3" r="4.3"/>
</g>
<g>
	<path class="auto-setup1" d="M69.6,66.2v-6.6h-0.2c-1.9,0-4.3-1.6-5-3.3c0,0,0,0,0-0.1c-0.7-1.7-0.4-3.7,0.9-5l0.2-0.2l-4.5-4.5l-0.2,0.2
		c-1.3,1.3-3.3,1.6-5,0.9c0,0,0,0-0.1,0c-1.7-0.7-2.4-2.3-2.4-4.2v-0.2h-6.6v0.2c0,1.9-1.5,3.5-3.2,4.2c0,0,0,0-0.1,0
		c-1.7,0.7-4,0.3-5.3-1l-0.2-0.2l-4.5,4.5l0.2,0.2c1.3,1.3,1.9,3.4,1.2,5.1c0,0,0,0,0,0.1c-0.7,1.7-2.4,3.3-4.3,3.3h-0.2v6.6h0.2
		c1.9,0,3.6,0.6,4.3,2.3c0,0,0,0,0,0.1c0.7,1.7,0.4,3.7-0.9,5l-0.2,0.2l4.5,4.5l0.2-0.2c1.3-1.3,3.3-1.6,5-0.9c0,0,0,0,0.1,0
		c1.7,0.7,3.2,3.3,3.2,5.1v0.2h6.6v-0.2c0-1.9,0.7-4.4,2.4-5.1c0,0,0,0,0.1,0c1.7-0.7,3.7-0.4,5,0.9l0.2,0.2l4.5-4.5l-0.2-0.2
		c-1.3-1.3-1.6-3.3-0.9-5c0,0,0,0,0-0.1c0.7-1.7,3.2-2.3,5-2.3H69.6z"/>
	<circle class="auto-setup1" cx="49.9" cy="63" r="10.7"/>
</g>
<g>
	<circle class="auto-setup3" cx="71" cy="49.6" r="10.7"/>
	<polyline class="auto-setup3" points="66,49 68,52.7 76,46.6"/>
</g>
</svg>
