<?xml version="1.0" encoding="utf-8"?>
<!-- Generator: Adobe Illustrator 26.0.3, SVG Export Plug-In . SVG Version: 6.00 Build 0)  -->
<svg version="1.1" id="Layer_1" xmlns="http://www.w3.org/2000/svg" xmlns:xlink="http://www.w3.org/1999/xlink" x="0px" y="0px"
	 viewBox="0 0 100 100" style="enable-background:new 0 0 100 100;" xml:space="preserve">
<style type="text/css">
	.auto-backup3{fill:#494949;}
	.auto-backup4{fill:#FFFFFF;stroke:#494949;stroke-width:3;stroke-linecap:round;stroke-linejoin:round;stroke-miterlimit:10;}
	.auto-backup5{fill:#FFFFFF;stroke:#FAA719;stroke-width:3;stroke-linecap:round;stroke-linejoin:round;stroke-miterlimit:10;}
	.auto-backup6{fill:none;stroke:#FAA719;stroke-width:3;stroke-linecap:round;stroke-linejoin:round;stroke-miterlimit:10;}
</style>

<g>
	<path class="auto-backup4" d="M26.3,5.1V19h71.3V5.1c0-1.5-1.5-2.8-3.2-2.8H29.5C27.8,2.3,26.3,3.6,26.3,5.1z"/>
	<path class="auto-backup4" d="M26.3,19v32.9c0,1.2,1.5,2.2,3.2,2.2h64.8c1.8,0,3.2-1,3.2-2.2V19H26.3z"/>
	<g>
		<circle class="auto-backup3" cx="35.2" cy="10.7" r="3.1"/>
		<circle class="auto-backup3" cx="44.6" cy="10.7" r="3.1"/>
		<circle class="auto-backup3" cx="53.9" cy="10.7" r="3.1"/>
	</g>
	<rect x="38.2" y="37.7" class="auto-backup5" width="9.4" height="9.4"/>
	<rect x="58.8" y="37.7" class="auto-backup4" width="9.4" height="9.4"/>
	<rect x="79.3" y="37.7" class="auto-backup5" width="9.4" height="9.4"/>
	<line class="auto-backup6" x1="47.6" y1="28.2" x2="79.3" y2="28.2"/>
</g>
<g>
	<path class="auto-backup4" d="M2.3,49.3v13.9H77V49.3c0-1.5-1.5-2.8-3.4-2.8H5.7C3.9,46.5,2.3,47.8,2.3,49.3z"/>
	<path class="auto-backup4" d="M2.3,63.2v32.9c0,1.2,1.5,2.2,3.4,2.2h67.9c1.9,0,3.4-1,3.4-2.2V63.2H2.3z"/>
	<g>
		<circle class="auto-backup3" cx="10.7" cy="54.9" r="3.1"/>
		<circle class="auto-backup3" cx="20.1" cy="54.9" r="3.1"/>
		<circle class="auto-backup3" cx="29.5" cy="54.9" r="3.1"/>
	</g>
	<rect x="11.7" y="81.9" class="auto-backup4" width="9.4" height="9.4"/>
	<rect x="32.3" y="81.9" class="auto-backup4" width="9.4" height="9.4"/>
	<rect x="52.9" y="81.9" class="auto-backup4" width="9.4" height="9.4"/>
	<line class="auto-backup4" x1="21.1" y1="72.4" x2="52.9" y2="72.4"/>
</g>
<polyline class="auto-backup4" points="21,15.5 21.8,8.6 12.6,7.6 "/>
<path class="auto-backup4" d="M3.2,40.4C0,19,11.4,12.5,21.8,8.6"/>
</svg>
