<?xml version="1.0" encoding="utf-8"?>
<!-- Generator: Adobe Illustrator 26.0.3, SVG Export Plug-In . SVG Version: 6.00 Build 0)  -->
<svg version="1.1" id="Layer_1" xmlns="http://www.w3.org/2000/svg" xmlns:xlink="http://www.w3.org/1999/xlink" x="0px" y="0px"
	 viewBox="0 0 100 100" style="enable-background:new 0 0 100 100;" xml:space="preserve">
<style type="text/css">
	.st0{fill:none;stroke:#494949;stroke-width:3;stroke-linecap:round;stroke-linejoin:round;stroke-miterlimit:10;}
	.st2{fill:#494949;}
	.st4{fill:#FFFFFF;stroke:#FFFFFF;stroke-width:3;stroke-miterlimit:10;}
	.st5{fill:#FFFFFF;stroke:#FBAE2F;stroke-width:3;stroke-linecap:round;stroke-linejoin:round;stroke-miterlimit:10;}
	.st6{fill:none;stroke:#FBAE2F;stroke-width:3;stroke-linecap:round;stroke-linejoin:round;stroke-miterlimit:10;}
</style>
<g>
	<path class="st0" d="M2.5,6v18.5h81.3V6c0-2-1.6-3.7-3.7-3.7h-74C4.1,2.3,2.5,3.9,2.5,6z"/>
	<path class="st0" d="M2.5,24.5V80c0,2,1.6,3.7,3.7,3.7h74c2,0,3.7-1.6,3.7-3.7V24.5C83.8,24.5,2.5,24.5,2.5,24.5z"/>
</g>
<g>
	<circle class="st2" cx="13.4" cy="13.4" r="3.7"/>
	<circle class="st2" cx="24.5" cy="13.4" r="3.7"/>
	<circle class="st2" cx="35.6" cy="13.4" r="3.7"/>
</g>
<g>
	<line class="st0" x1="25.1" y1="40.2" x2="64.8" y2="40.2"/>
	<line class="st0" x1="25.1" y1="67.4" x2="64.8" y2="67.4"/>
	<line class="st0" x1="25.1" y1="53.8" x2="64.8" y2="53.8"/>
	<polyline class="st0" points="9.7,40.3 12.7,43.3 18.7,35.3 	"/>
	<polyline class="st0" points="9.7,54.8 12.7,57.8 18.7,49.8 	"/>
	<polyline class="st0" points="9.7,68.4 12.7,71.4 18.7,63.4 	"/>
</g>
<g>
	<path class="st4" d="M81.4,55.6c2.5,0,4.6,1.9,4.6,4.3l-0.2,22.6c0,2.4-2,4.3-4.6,4.3H60.9c-2.5,0-4.6-1.9-4.6-4.3V65.2"/>
	<path class="st5" d="M76,95.7C59.1,95.7,51.6,80,57.5,67c5.7-12.6,23-15.6,32.8-6c6.6,6.4,7.8,16.9,3.1,24.8"/>
	<line class="st6" x1="89.9" y1="80.5" x2="91.8" y2="87.7"/>
	<line class="st6" x1="97.9" y1="86.9" x2="91.8" y2="87.7"/>
	<line class="st6" x1="82.5" y1="78" x2="74.4" y2="78"/>
	<line class="st6" x1="74.4" y1="69.4" x2="74.4" y2="78"/>
</g>
</svg>
