<?xml version="1.0" encoding="utf-8"?>
<!-- Generator: Adobe Illustrator 26.0.3, SVG Export Plug-In . SVG Version: 6.00 Build 0)  -->
<svg version="1.1" id="Layer_1" xmlns="http://www.w3.org/2000/svg" xmlns:xlink="http://www.w3.org/1999/xlink" x="0px" y="0px"
	 viewBox="0 0 100 100" style="enable-background:new 0 0 100 100;" xml:space="preserve">
<style type="text/css">
	.st0{fill:none;stroke:#494949;stroke-width:3;stroke-linecap:round;stroke-linejoin:round;stroke-miterlimit:10;}
	.st1{fill:none;stroke:#494949;stroke-width:2;stroke-linecap:round;stroke-linejoin:round;stroke-miterlimit:10;}
	.st2{fill:#40464C;}
	.st3{fill:none;stroke:#FBAE2F;stroke-width:3;stroke-linecap:round;stroke-linejoin:round;stroke-miterlimit:10;}
	.st4{fill:#FFFFFF;stroke:#FBAE2F;stroke-width:3;stroke-linecap:round;stroke-linejoin:round;stroke-miterlimit:10;}
</style>
<g>
	<path class="st0" d="M2.5,6v18.5h81.3V6c0-2-1.6-3.7-3.7-3.7h-74C4.1,2.3,2.5,3.9,2.5,6z"/>
	<line class="st1" x1="2.5" y1="54.4" x2="83.8" y2="54.4"/>
	<path class="st0" d="M2.5,24.5V80c0,2,1.6,3.7,3.7,3.7h74c2,0,3.7-1.6,3.7-3.7V24.5C83.8,24.5,2.5,24.5,2.5,24.5z"/>
</g>
<g>
	<circle class="st2" cx="13.4" cy="13.4" r="3.7"/>
	<circle class="st2" cx="24.5" cy="13.4" r="3.7"/>
	<circle class="st2" cx="35.6" cy="13.4" r="3.7"/>
</g>
<g>
	<line class="st3" x1="25.1" y1="37.9" x2="64.8" y2="37.9"/>
	<line class="st3" x1="33.2" y1="44.4" x2="56.9" y2="44.4"/>
	<path class="st4" d="M93.4,69.2v-8.7v0.9c0-12.8-26-12.8-26,0v-0.9v8.7H93.4z"/>
	<path class="st4" d="M63.1,68.9v22c0,0.8,0.7,1.5,1.6,1.5h31.5c0.9,0,1.6-0.6,1.6-1.5v-22C97.7,68.9,63.1,68.9,63.1,68.9z"/>
	<line class="st3" x1="80.4" y1="77.2" x2="80.4" y2="86.8"/>
	<line class="st3" x1="77.1" y1="78" x2="83.8" y2="78"/>
</g>
<g>
	<rect x="9.7" y="63.3" class="st0" width="12.7" height="10.8"/>
	<line class="st0" x1="9.7" y1="78" x2="19.1" y2="78"/>
	<rect x="31.9" y="63.3" class="st0" width="12.7" height="10.8"/>
	<line class="st0" x1="31.9" y1="78" x2="41.3" y2="78"/>
</g>
</svg>
