<?xml version="1.0" encoding="utf-8"?>
<!-- Generator: Adobe Illustrator 27.2.0, SVG Export Plug-In . SVG Version: 6.00 Build 0)  -->
<svg version="1.1" id="Layer_1" xmlns="http://www.w3.org/2000/svg" xmlns:xlink="http://www.w3.org/1999/xlink" x="0px" y="0px"
	 viewBox="0 0 100 100" style="enable-background:new 0 0 100 100;" xml:space="preserve">
<style type="text/css">
	.cm0{fill:none;stroke:#4C4C4C;stroke-width:3;stroke-miterlimit:10;}
	.cm1{fill:#4C4C4D;}
	.cm2{fill:none;stroke:#FBAE2F;stroke-width:2;stroke-miterlimit:10;}
	.cm3{fill:none;stroke:#FAA41A;stroke-width:2;stroke-miterlimit:10;}
</style>
<g>
	<path class="cm0" d="M94.98,98.45H5.02c0-26.62,0-91.23,0-96.9c29.99,0,59.97,0,89.96,0C94.98,7.32,94.98,71.93,94.98,98.45z"/>
	<line class="cm0" x1="94.98" y1="19.52" x2="5.02" y2="19.52"/>
	<circle class="cm1" cx="14.73" cy="10.97" r="2.92"/>
	<circle class="cm1" cx="25.27" cy="10.97" r="2.92"/>
	<path class="cm1" d="M38.45,10.97c0,1.61-1.31,2.92-2.92,2.92c-1.61,0-2.92-1.31-2.92-2.92c0-1.61,1.31-2.92,2.92-2.92
		C37.15,8.06,38.45,9.36,38.45,10.97z"/>
	<path class="cm2" d="M55.5,52.6v-4.19c3.76-4.24,7.52-8.49,11.28-12.73c2.56,2.41,5.11,4.82,7.67,7.23
		c-3.71,4.15-7.42,8.29-11.14,12.44c-1.69,0.05-3.37,0.1-5.06,0.14C57.33,54.53,56.41,53.57,55.5,52.6z"/>
	<path class="cm2" d="M28.45,43.35c2.46,1.98,4.92,3.95,7.38,5.93c1.35-0.03,2.7-0.06,4.05-0.1c0.58-0.74,1.16-1.48,1.74-2.22
		c0-1.11,0-2.22,0-3.33c-2.22-2.22-4.44-4.44-6.65-6.65l7.09-0.72l5.93,5.06L48.7,50l23.14,23.43v4.48l-1.74,2.02H66.2L42.19,57.09
		l-6.65-0.29l-7.35-5.5C28.27,48.65,28.36,46,28.45,43.35z"/>
	<path class="cm3" d="M28.18,81.39l2.29-7.38c4.15-4.1,8.29-8.2,12.44-12.29c2.17,2.12,4.34,4.24,6.51,6.36
		c-4.48,4.24-8.97,8.49-13.45,12.73C33.38,81,30.78,81.19,28.18,81.39z"/>
</g>
</svg>
