<?xml version="1.0" encoding="utf-8"?>
<!-- Generator: Adobe Illustrator 27.2.0, SVG Export Plug-In . SVG Version: 6.00 Build 0)  -->
<svg version="1.1" id="Layer_1" xmlns="http://www.w3.org/2000/svg" xmlns:xlink="http://www.w3.org/1999/xlink" x="0px" y="0px"
	 viewBox="0 0 100 100" style="enable-background:new 0 0 100 100;" xml:space="preserve">
<style type="text/css">
	.ei0{fill:none;stroke:#4B4B4B;stroke-width:3;stroke-miterlimit:10;}
	.ei1{fill:none;stroke:#F2B225;stroke-width:3;stroke-miterlimit:10;}
</style>
<g>
	<path class="ei0" d="M6.25,29.09c4.14,0.04,8.28,0.08,12.42,0.12"/>
	<path class="ei0" d="M81.32,29.76c4.13,0.03,8.26,0.06,12.39,0.09"/>
	<polyline class="ei1" points="19.12,41.95 19.12,2.16 80.82,2.16 80.82,41.95 	"/>
	<path class="ei0" d="M92.22,97.84H7.72c0-21.83,0-43.66,0-65.5c14.31,12,28.61,23.99,42.92,35.99c13.86-12,27.72-23.99,41.58-35.99
		C92.22,54.17,92.22,76,92.22,97.84z"/>
	<line class="ei1" x1="27.84" y1="18.03" x2="70.54" y2="18.03"/>
	<line class="ei1" x1="27.84" y1="28.32" x2="59.81" y2="28.32"/>
</g>
</svg>
