<?xml version="1.0" encoding="utf-8"?>
<!-- Generator: Adobe Illustrator 27.2.0, SVG Export Plug-In . SVG Version: 6.00 Build 0)  -->
<svg version="1.1" id="Layer_1" xmlns="http://www.w3.org/2000/svg" xmlns:xlink="http://www.w3.org/1999/xlink" x="0px" y="0px"
	 viewBox="0 0 100 100" style="enable-background:new 0 0 100 100;" xml:space="preserve">
<style type="text/css">
	.fw0{fill:none;stroke:#4C4C4C;stroke-width:3;stroke-miterlimit:10;}
	.fw1{fill:#4C4C4D;}
	.fw2{fill:none;stroke:#FBAE2F;stroke-width:3;stroke-miterlimit:10;}
	.fw3{fill:none;stroke:#494949;stroke-width:2;stroke-miterlimit:10;}
	.fw4{fill:none;stroke:#494949;stroke-width:3;stroke-miterlimit:10;}
	.fw5{fill:none;stroke:#F9B44E;stroke-width:3;stroke-miterlimit:10;}
</style>
<g>
	<path class="fw0" d="M64.59,87.54c-20.46,0-40.93,0-61.39,0c0-28.44,0-56.88,0-85.33c26.49,0,52.99,0,79.48,0
		c0,15.62,0,31.24,0,46.85"/>
	<line class="fw0" x1="82.68" y1="18.04" x2="3.2" y2="18.04"/>
	<ellipse class="fw1" cx="11.78" cy="10.52" rx="2.58" ry="2.57"/>
	<ellipse class="fw1" cx="21.08" cy="10.52" rx="2.58" ry="2.57"/>
	<path class="fw1" d="M32.73,10.52c0,1.42-1.15,2.57-2.58,2.57c-1.42,0-2.58-1.15-2.58-2.57c0-1.42,1.15-2.57,2.58-2.57
		C31.58,7.95,32.73,9.1,32.73,10.52z"/>
	<line class="fw2" x1="25.63" y1="33.33" x2="58.66" y2="33.33"/>
	<line class="fw2" x1="31.85" y1="41.85" x2="51.79" y2="41.85"/>
	<line class="fw3" x1="4.19" y1="54.28" x2="70.77" y2="54.28"/>
	<line class="fw4" x1="14.24" y1="81.5" x2="26.48" y2="81.5"/>
	<line class="fw4" x1="37.67" y1="81.5" x2="49.91" y2="81.5"/>
	<rect x="16.2" y="62.9" class="fw4" width="12.44" height="11.65"/>
	<rect x="39.36" y="62.9" class="fw4" width="12.44" height="11.65"/>
	<path class="fw5" d="M68.27,94.57c2.36-5.86,4.72-11.72,7.07-17.58H60.78l15.4-22.96c5.76,0,11.51,0,17.27,0
		c-4.16,5.24-8.32,10.47-12.48,15.71h14.77C86.58,78.01,77.43,86.29,68.27,94.57z"/>
</g>
</svg>
