<?xml version="1.0" encoding="utf-8"?>
<!-- Generator: Adobe Illustrator 27.2.0, SVG Export Plug-In . SVG Version: 6.00 Build 0)  -->
<svg version="1.1" id="Layer_1" xmlns="http://www.w3.org/2000/svg" xmlns:xlink="http://www.w3.org/1999/xlink" x="0px" y="0px"
	 viewBox="0 0 100 100" style="enable-background:new 0 0 100 100;" xml:space="preserve">
<style type="text/css">
	.st0{fill:url(#SVGID_1_);}
	.st1{fill:url(#SVGID_00000141436762116178984990000004125046336094448531_);}
	.st2{fill:url(#SVGID_00000148649164951034705670000018019781331819457161_);}
	.st3{fill:url(#SVGID_00000109014567427984059190000005633709177377963443_);}
	.st4{fill:url(#SVGID_00000152232089207252264100000011813779465253833363_);}
</style>
<g transform="translate(-304.04 -199.65)">	
		<linearGradient id="SVGID_1_" gradientUnits="userSpaceOnUse" x1="57.9824" y1="493.5564" x2="64.5484" y2="493.5564" gradientTransform="matrix(12.491 0 0 -5.9363 -405.2369 3148.7607)">
		<stop  offset="0" style="stop-color:#11861E"/>
		<stop  offset="1" style="stop-color:#0EB13F"/>
	</linearGradient>
	<path class="st0" d="M320.8,209.7c3,0.1,6,0.6,8.8,1.6c2.8,1,5.6,2.2,8.2,3.7c2.6,1.4,5.1,3.1,7.5,4.8c1.2,0.9,2.4,1.8,3.5,2.7
		c0.6,0.5,1.1,1,1.7,1.5c0.3,0.2,0.6,0.5,0.8,0.7l0.4,0.4l0.5,0.4l-8.3,0l0.7-0.9l0.7-0.8c0.5-0.5,0.9-1,1.4-1.5
		c0.9-1,1.9-1.9,2.9-2.8c1-0.9,2-1.8,3-2.6c0.5-0.4,1-0.8,1.5-1.2l0.8-0.6l0.8-0.6c2.1-1.6,4.3-3,6.6-4.4c2.3-1.4,4.6-2.6,6.9-3.7
		c4.7-2.2,9.7-4,14.9-5.1c2.6-0.6,5.1-1,7.7-1.2c2.6-0.2,5.2-0.2,7.9,0c-1.1,0.8-2.2,1.4-3.3,2.1c-0.5,0.3-1.1,0.7-1.6,1
		c-0.3,0.2-0.5,0.3-0.8,0.5l-0.8,0.5c-2.2,1.3-4.3,2.6-6.3,3.9c-4.2,2.6-8.2,5.2-12.2,7.9c-4,2.7-7.8,5.4-11.6,8.3
		c-0.9,0.7-1.9,1.4-2.8,2.2c-0.9,0.7-1.8,1.5-2.8,2.2c-0.9,0.7-1.8,1.5-2.7,2.2c-0.4,0.4-0.9,0.7-1.3,1.1l-1.2,1l-5,4.4l-3.3-4.4
		c-0.1-0.1-0.2-0.2-0.3-0.3l-0.3-0.4l-0.6-0.8l-1.3-1.5c-0.9-1-1.8-2.1-2.7-3.1c-1.8-2-3.6-4.1-5.5-6.1c-1.9-2-3.8-4-5.8-5.9
		C325.3,213.2,323.1,211.4,320.8,209.7L320.8,209.7z"/>
	
		<linearGradient id="SVGID_00000110445161423816066280000010321554550812058253_" gradientUnits="userSpaceOnUse" x1="516.3196" y1="275.3979" x2="566.8458" y2="275.3979" gradientTransform="matrix(1 0 0 -1 -168.13 559.95)">
		<stop  offset="0" style="stop-color:#3BB200"/>
		<stop  offset="1" style="stop-color:#4DCE00"/>
	</linearGradient>
	<path style="fill:url(#SVGID_00000110445161423816066280000010321554550812058253_);" d="M348.4,283.5c-9.2,0-17.6-5.2-21.7-13.5
		l-14.4,6.2c8.9,19,31,27.9,50.5,20.3l-6.2-14.4C353.9,283,351.2,283.5,348.4,283.5L348.4,283.5z"/>
	
		<linearGradient id="SVGID_00000121264469528958493270000012373721850852659878_" gradientUnits="userSpaceOnUse" x1="512.5475" y1="310.2957" x2="539.9579" y2="310.2957" gradientTransform="matrix(1 0 0 -1 -168.13 559.95)">
		<stop  offset="0" style="stop-color:#3BB100"/>
		<stop  offset="1" style="stop-color:#40BA00"/>
	</linearGradient>
	<path style="fill:url(#SVGID_00000121264469528958493270000012373721850852659878_);" d="M324.2,259.2c0-8.5,4.4-16.3,11.7-20.7
		l-10.2-12.1c-15,10.3-21.1,29.5-14.8,46.6l14.5-6.2C324.6,264.3,324.2,261.8,324.2,259.2L324.2,259.2z"/>
	
		<linearGradient id="SVGID_00000127036713503558006320000007956984057562833792_" gradientUnits="userSpaceOnUse" x1="563.0235" y1="322.4282" x2="588.257" y2="322.4282" gradientTransform="matrix(1 0 0 -1 -168.13 559.95)">
		<stop  offset="0" style="stop-color:#4DCF00"/>
		<stop  offset="1" style="stop-color:#50D400"/>
	</linearGradient>
	<path style="fill:url(#SVGID_00000127036713503558006320000007956984057562833792_);" d="M372.5,227.4l-13.6,10
		c4.6,2.2,8.3,5.8,10.8,10.3l14.5-6.2C381.4,235.9,377.4,231.1,372.5,227.4L372.5,227.4z"/>
	
		<linearGradient id="SVGID_00000040540672938289620620000010013521425073034918_" gradientUnits="userSpaceOnUse" x1="563.8065" y1="290.0982" x2="592.4362" y2="290.0982" gradientTransform="matrix(1 0 0 -1 -168.13 559.95)">
		<stop  offset="0" style="stop-color:#4ED000"/>
		<stop  offset="1" style="stop-color:#50D400"/>
	</linearGradient>
	<path style="fill:url(#SVGID_00000040540672938289620620000010013521425073034918_);" d="M388.4,259.2c0-5-0.9-9.9-2.8-14.6
		l-14.4,6.2c4.2,11.4-0.7,24.1-11.4,29.8l6.2,14.5C379.6,288.4,388.3,274.5,388.4,259.2L388.4,259.2z"/>
</g>
</svg>
