<?xml version="1.0" encoding="utf-8"?>
<!-- Generator: Adobe Illustrator 27.2.0, SVG Export Plug-In . SVG Version: 6.00 Build 0)  -->
<svg version="1.1" id="Layer_1" xmlns="http://www.w3.org/2000/svg" xmlns:xlink="http://www.w3.org/1999/xlink" x="0px" y="0px"
	 viewBox="0 0 100 75" style="enable-background:new 0 0 100 75;" xml:space="preserve">
<style type="text/css">
	.st0{fill:#F68D29;}
</style>
<path class="st0" d="M0.65,68.83c0.09-0.16,0.66-0.02,1.79,0.26c0.91,0.22,1.54,0.43,1.79,0.51c1.46,0.45,2.78,0.33,3.58,0.26
	c0.78-0.07,2.81-0.29,4.73-1.66c1.03-0.74,1.79-1.77,3.33-3.84c0.75-1.01,0.95-1.4,1.02-1.54c0.93-1.8,0.9-3.51,0.9-4.09
	c0-0.41,0.64-5,1.92-14.2c0.53-3.79,0.91-6.55,1.92-10.11c0.9-3.16,2.34-8.1,6.01-13.43c1.66-2.41,3.89-5.58,7.93-8.31
	c2.79-1.89,5.39-2.85,7.04-3.45c2.24-0.83,4.6-1.7,7.8-1.92c0.85-0.06,2.4-0.04,5.5,0c1.98,0.02,2.99,0.04,3.97,0.13
	c2.52,0.23,4.05,0.38,5.76,1.28c0.95,0.5,1.99,1.25,2.56,1.66c0.6,0.43,0.76,0.58,2.05,1.54c1.23,0.91,1.59,1.15,1.79,1.28
	c0.86,0.56,1.34,0.87,2.05,1.15c0.9,0.36,1.65,0.45,2.17,0.51c1.25,0.15,2.12,0.01,3.84-0.26c0.94-0.15,1.35-0.26,1.79-0.51
	c0.57-0.32,0.9-0.7,1.28-1.15c1.02-1.21,0.83-1.65,1.92-3.07c0.43-0.56,0.62-0.71,0.77-1.15c0.2-0.6,0.05-0.94,0-1.92
	c-0.03-0.67-0.06-1.37,0.13-2.17c0.26-1.1,0.89-2.17,0.9-2.17c0.85-0.78,1.07-0.77,1.07-0.77c0.39,0.03,0.77,0.55,0.77,0.55
	c0,0,0.19,0.34,0.29,0.53c0.07,0.12,0.24,0.32,0.99-0.27c0,0,0.32,0.39,0.51,0.77c0.14,0.28,0.18,0.53,0.26,1.02
	c0.05,0.34,0.09,0.56,0.09,0.85c0,0.33-0.05,0.41-0.26,1.36c-0.17,0.78-0.16,0.84-0.26,1.02c-0.18,0.35-0.51,0.77-0.51,0.77
	c0,0,0.49,0.3,0.94,0.51c0.34,0.16,0.41,0.16,0.85,0.34c0.55,0.22,0.98,0.44,1.11,0.51c0.73,0.4,1.12,1.05,1.71,2.05
	c0.31,0.52,0.72,1.22,1.02,2.22c0.16,0.52,0.18,0.78,0.43,1.19c0.28,0.48,0.62,0.77,1.11,1.19c0.73,0.63,0.86,0.55,1.28,1.02
	c0.36,0.4,0.55,0.76,0.77,1.19c0.34,0.67,0.35,0.92,0.34,1.02c0,0.07-0.03,0.5-0.34,0.85c-0.37,0.42-1.02,0.6-1.02,0.6
	c0,0-0.33-0.02-0.62-0.04c-0.46-0.04-0.54-0.09-0.57-0.04c0,0-0.06,0.09,0.68,0.94c-0.1,0.1-0.25,0.24-0.46,0.36
	c-0.12,0.07-0.24,0.13-0.31,0.15c-0.48,0.16-1.12-0.44-1.19-0.51c-0.31-0.3-0.77-0.67-1.42-0.96c-1.28-0.57-4.31-1.18-4.94-0.96
	c-0.83,0.29-0.69,1.38-1.75,3.03c-0.21,0.32-0.18,0.25-2.47,2.64c-1.6,1.68-1.67,1.77-2.05,2.05c-0.84,0.61-1.59,1.17-2.73,1.45
	c-0.89,0.22-1.5,0.14-1.96,0.68c-0.28,0.33-0.21,0.56-0.6,1.02c-0.35,0.42-0.65,0.54-1.11,0.85c-0.51,0.35-0.85,0.72-1.54,1.45
	c-0.45,0.47-0.75,0.86-1.35,1.61c-1.07,1.35-1.61,2.03-1.77,2.4c-0.47,1.08-0.34,1.75-0.98,2.13c-0.19,0.12-0.47,0.16-1.02,0.26
	c-0.72,0.12-1.22,0.13-1.61,0.15c-1.34,0.07-1.55,0.33-2.29,0.35c-0.66,0.02-1.63-0.16-2.84-1.1c0.09-0.3,0.17-0.6,0.26-0.9
	c0.27,0.01,0.54,0.03,0.81,0.04c0.2-0.09,0.4-0.19,0.6-0.28c0.33-0.03,0.65-0.07,0.98-0.1c0.44,0.03,0.88,0.06,1.32,0.09
	c0.72-0.1,1.45-0.2,2.17-0.3c0.57-0.64,1.14-1.28,1.71-1.92c0.41-0.97,0.82-1.93,1.24-2.9c0.03-0.48,0.06-0.97,0.09-1.45
	c-0.4,0.16-0.8,0.31-1.19,0.47c-0.33,0.47-0.65,0.94-0.98,1.41c-0.37,0.95-0.74,1.9-1.11,2.86c-0.85,0.36-1.71,0.71-2.56,1.07
	c-1.05,0.01-2.1,0.03-3.16,0.04c-0.56,0.29-1.25,0.17-1.66-0.3c-0.41-0.46-0.46-1.14-0.13-1.66c0.33,0.09,0.65,0.17,0.98,0.26
	c0.33-0.34,0.65-0.68,0.98-1.02c0.51,0.11,1.02,0.23,1.54,0.34c0.16-0.26,0.31-0.51,0.47-0.77c0.54,0.09,1.08,0.17,1.62,0.26
	c0.6-0.92,1.19-1.85,1.79-2.77c-1.27,0.01-2.53,0.03-3.79,0.04c-1.36-0.09-2.78-0.23-4.26-0.43c-0.97-0.13-1.91-0.27-2.81-0.43
	c-0.88,2.36-2.49,5.74-5.54,8.87c-1.59,1.63-3.01,2.6-5.85,4.55c-3.14,2.15-8.48,5.42-10.78,7.73c-0.94,0.95-1.71,1.96-1.71,1.96
	c-0.7,0.92-1.14,1.69-1.45,2.22c-0.45,0.77-0.67,1.15-0.85,1.62c-0.24,0.61-0.35,1.14-0.51,2.98c-0.15,1.65-0.12,1.99-0.26,3.58
	c-0.02,0.25-0.1,1.05-0.26,2.64c-0.15,1.49-0.21,2.07-0.34,2.9c-0.28,1.7-0.49,2.11-0.68,2.39c-0.31,0.46-0.66,0.74-1.36,1.28
	c-0.71,0.55-1.1,0.85-1.71,1.02c-0.32,0.09-1.49,0.42-1.96-0.17c-0.37-0.46-0.14-1.27,0.14-1.72c0.32-0.51,0.58-0.39,0.88-0.84
	c0.49-0.73,0.02-1.38,0.33-2.44c0.2-0.69,0.59-1.04,0.87-1.4c0.77-0.97,1-2.28,1.02-5.2c0.01-1.9-0.08-3.2-0.34-6.91
	c-0.23-3.25-0.32-4.9,0.6-6.05c0.43-0.55,0.56-0.39,2.05-1.45c1.74-1.23,2.85-2.36,4.42-3.94c1.67-1.68,2.5-2.53,2.92-3.31
	c0.63-1.19,0.79-2.41,1.11-4.86c0.36-2.73,0.53-4.1,0-5.29c-0.4-0.9-0.89-1.27-1.22-2.55c-0.3-1.17-0.24-2.2-0.23-2.4
	c0.09-1.43,0.54-1.97,0.34-2.13c-0.46-0.38-3.54,2-6.05,5.2c-0.45,0.57-2.63,3.4-4.26,7.68c-0.58,1.52-0.94,2.83-1.39,4.47
	c-0.54,1.98-0.86,3.48-1.34,5.85c-1.42,6.98-1.32,7.06-1.96,9.72c-1.02,4.25-1.83,6.13-2.22,6.99c-1.18,2.6-2.21,3.92-2.81,4.61
	c-0.83,0.95-1.95,2.21-3.84,3.07c-1.21,0.55-2.28,0.73-2.98,0.85c-1.57,0.27-2.83,0.21-3.41,0.17c-1.05-0.08-2.24-0.17-3.58-0.77
	C1.92,70.65,0.46,69.15,0.65,68.83z"/>
</svg>
