<?xml version="1.0" encoding="utf-8"?>
<!-- Generator: Adobe Illustrator 27.2.0, SVG Export Plug-In . SVG Version: 6.00 Build 0)  -->
<svg version="1.1" id="Layer_1" xmlns="http://www.w3.org/2000/svg" xmlns:xlink="http://www.w3.org/1999/xlink" x="0px" y="0px"
	 viewBox="0 0 100 100" style="enable-background:new 0 0 100 100;" xml:space="preserve">
<style type="text/css">
	.st0{fill:#EE5586;}
	.st1{fill:#5E686B;}
</style>
<path id="svg-ico" class="st0" d="M13.1,37.2c-1.5,3.9-2.2,8.3-2.2,12.8c0,13.7,7.4,26.5,19.1,33.6C30,83.5,13.1,37.2,13.1,37.2z"/>
<path id="svg-ico" class="st0" d="M58.3,32L70,70c1.6-6.3,5.6-16.2,6-22c0.4-11.2-15.5-21.1-1.8-28.7C57.8,5.7,31.5,9.1,19.1,26.2
	c4,0,10.4-0.4,10.4-0.4c3.8-0.1,4.3,5.9,0.5,5.9c0.1,0-1,0.2-2.6,0.3l12.9,36l7.5-20l-5.7-15.9c-4.2,0.1-7.6-1.5-5.1-5.4
	c2.7-2.1,6.7-0.2,13-0.6c4,0,10.5-0.4,10.5-0.4c3.8-0.1,4.3,5.9,0.5,5.9C61.1,31.7,60,31.9,58.3,32L58.3,32z"/>
<path id="svg-ico" class="st0" d="M42.9,88c2.9,0.8,5.9,1.2,9.7,1.2c3.9,0,8.1-0.7,11.6-1.8L53.5,57.7L42.9,88L42.9,88z"/>
<path id="svg-ico" class="st0" d="M87.2,38.1c-0.4,3.7-1.4,7.5-3.2,11.6L73,81.5C83,74.2,89.2,62.4,89.2,50C89.2,46.1,88.5,42.1,87.2,38.1z"/>
<path id="svg-ico" class="st1" d="M50,100C22.4,100,0,77.6,0,50S22.4,0,50,0s50,22.4,50,50C100,77.1,77.1,100,50,100z M50,2.7
	C23.9,2.7,2.7,23.9,2.7,50S23.9,97.3,50,97.3c25.7,0,47.3-21.7,47.3-47.3C97.3,23.9,76.1,2.7,50,2.7z"/>
</svg>
